<svg width="1800" height="560" viewBox="0 0 1800 560" fill="none" xmlns="http://www.w3.org/2000/svg"><defs><linearGradient id="bg2" x1="0" y1="0" x2="1800" y2="560"><stop offset="0" stop-color="#F8FAFC"/><stop offset="1" stop-color="#EEF2FF"/></linearGradient><filter id="cardShadow" x="-10%" y="-10%" width="120%" height="130%"><feDropShadow dx="0" dy="14" stdDeviation="14" flood-color="#64748B" flood-opacity="0.20"/></filter></defs><rect width="1800" height="560" rx="36" fill="url(#bg2)"/><text x="90" y="85" font-family="Inter, Segoe UI, Arial, sans-serif" font-size="42" font-weight="900" fill="#111827">Research Architecture</text><text x="90" y="125" font-family="Inter, Segoe UI, Arial, sans-serif" font-size="22" fill="#475569">From memory-driven equations to neural-computational prediction.</text><g filter="url(#cardShadow)"><rect x="90" y="178" width="380" height="230" rx="28" fill="#FFFFFF" stroke="#E2E8F0"/><text x="130" y="235" font-family="Inter, Segoe UI, Arial, sans-serif" font-size="27" font-weight="900" fill="#111827">Fractional Systems</text><text x="130" y="278" font-family="Inter, Segoe UI, Arial, sans-serif" font-size="21" fill="#475569">Long-memory dynamics</text><text x="130" y="314" font-family="Inter, Segoe UI, Arial, sans-serif" font-size="21" fill="#475569">Nonlinear state evolution</text><text x="130" y="350" font-family="Inter, Segoe UI, Arial, sans-serif" font-size="21" fill="#475569">Bioelectrical models</text><circle cx="405" cy="235" r="28" fill="#22D3EE"/></g><path d="M505 292 H660" stroke="#7C3AED" stroke-width="7" stroke-linecap="round"/><path d="M652 274 L690 292 L652 310 Z" fill="#7C3AED"/><g filter="url(#cardShadow)"><rect x="710" y="178" width="380" height="230" rx="28" fill="#FFFFFF" stroke="#E2E8F0"/><text x="750" y="235" font-family="Inter, Segoe UI, Arial, sans-serif" font-size="27" font-weight="900" fill="#111827">Neural Surrogates</text><text x="750" y="278" font-family="Inter, Segoe UI, Arial, sans-serif" font-size="21" fill="#475569">NARX structures</text><text x="750" y="314" font-family="Inter, Segoe UI, Arial, sans-serif" font-size="21" fill="#475569">Bayesian regularization</text><text x="750" y="350" font-family="Inter, Segoe UI, Arial, sans-serif" font-size="21" fill="#475569">Deep autoregression</text><circle cx="1025" cy="235" r="28" fill="#A78BFA"/></g><path d="M1125 292 H1280" stroke="#06B6D4" stroke-width="7" stroke-linecap="round"/><path d="M1272 274 L1310 292 L1272 310 Z" fill="#06B6D4"/><g filter="url(#cardShadow)"><rect x="1330" y="178" width="380" height="230" rx="28" fill="#FFFFFF" stroke="#E2E8F0"/><text x="1370" y="235" font-family="Inter, Segoe UI, Arial, sans-serif" font-size="27" font-weight="900" fill="#111827">Scientific Insight</text><text x="1370" y="278" font-family="Inter, Segoe UI, Arial, sans-serif" font-size="21" fill="#475569">Prediction</text><text x="1370" y="314" font-family="Inter, Segoe UI, Arial, sans-serif" font-size="21" fill="#475569">Reconstruction</text><text x="1370" y="350" font-family="Inter, Segoe UI, Arial, sans-serif" font-size="21" fill="#475569">Interpretation</text><circle cx="1645" cy="235" r="28" fill="#7C3AED"/></g><path d="M150 470 C270 420, 365 510, 485 465 S710 420, 840 470 S1090 520, 1230 462 S1510 425, 1660 478" stroke="#06B6D4" stroke-width="5" fill="none"/><path d="M150 492 C270 442, 365 532, 485 487 S710 442, 840 492 S1090 542, 1230 484 S1510 447, 1660 500" stroke="#A78BFA" stroke-width="5" fill="none"/></svg>