<svg width="1800" height="560" viewBox="0 0 1800 560" fill="none" xmlns="http://www.w3.org/2000/svg">
  <defs>
    <linearGradient id="bg" x1="0" y1="0" x2="1800" y2="560" gradientUnits="userSpaceOnUse"><stop offset="0" stop-color="#020617"/><stop offset="0.42" stop-color="#111827"/><stop offset="1" stop-color="#26114A"/></linearGradient>
    <radialGradient id="glow1" cx="0" cy="0" r="1" gradientUnits="userSpaceOnUse" gradientTransform="translate(1460 120) rotate(135) scale(420 300)"><stop stop-color="#A78BFA" stop-opacity="0.75"/><stop offset="1" stop-color="#A78BFA" stop-opacity="0"/></radialGradient>
    <radialGradient id="glow2" cx="0" cy="0" r="1" gradientUnits="userSpaceOnUse" gradientTransform="translate(330 470) rotate(-20) scale(480 260)"><stop stop-color="#22D3EE" stop-opacity="0.45"/><stop offset="1" stop-color="#22D3EE" stop-opacity="0"/></radialGradient>
    <filter id="shadow" x="-20%" y="-20%" width="140%" height="140%"><feDropShadow dx="0" dy="18" stdDeviation="18" flood-color="#000000" flood-opacity="0.35"/></filter>
  </defs>
  <rect width="1800" height="560" rx="38" fill="url(#bg)"/><rect width="1800" height="560" rx="38" fill="url(#glow1)"/><rect width="1800" height="560" rx="38" fill="url(#glow2)"/>
  <g opacity="0.22"><path d="M0 104 H1800 M0 208 H1800 M0 312 H1800 M0 416 H1800" stroke="#94A3B8"/><path d="M120 0 V560 M240 0 V560 M360 0 V560 M480 0 V560 M600 0 V560 M720 0 V560 M840 0 V560 M960 0 V560 M1080 0 V560 M1200 0 V560 M1320 0 V560 M1440 0 V560 M1560 0 V560 M1680 0 V560" stroke="#94A3B8"/></g>
  <path d="M105 388 C210 200, 335 512, 478 252 C593 44, 710 352, 835 164 C960 -24, 1070 420, 1218 218 C1365 16, 1490 320, 1695 108" stroke="#22D3EE" stroke-width="8" fill="none" opacity="0.98"/>
  <path d="M105 420 C230 260, 340 448, 493 304 C640 166, 745 370, 884 238 C1022 104, 1138 398, 1298 276 C1458 156, 1535 260, 1695 192" stroke="#A78BFA" stroke-width="5" fill="none" opacity="0.94"/>
  <path d="M1120 88 C1284 80, 1414 166, 1430 284 C1448 410, 1290 464, 1190 380 C1080 288, 1128 154, 1270 150 C1405 146, 1496 300, 1360 370" stroke="#F8FAFC" stroke-width="3" fill="none" opacity="0.38"/>
  <g filter="url(#shadow)"><rect x="90" y="76" width="950" height="305" rx="30" fill="#0F172A" opacity="0.9" stroke="#334155"/><text x="130" y="150" font-family="Inter, Segoe UI, Arial, sans-serif" font-size="64" font-weight="900" fill="#F8FAFC">Shahzaib Ahmed Hassan</text><text x="132" y="205" font-family="Inter, Segoe UI, Arial, sans-serif" font-size="30" font-weight="700" fill="#C084FC">Machine Learning · Fractional Dynamics · Computational Neuroscience</text><text x="132" y="260" font-family="Inter, Segoe UI, Arial, sans-serif" font-size="23" fill="#CBD5E1">Neural-computational surrogates for chaotic, nonlinear, and memory-driven systems.</text><g transform="translate(132,304)"><rect width="190" height="48" rx="24" fill="#7C3AED"/><text x="95" y="31" text-anchor="middle" font-family="Inter, Segoe UI, Arial, sans-serif" font-size="18" font-weight="800" fill="#FFFFFF">NARX Models</text><rect x="210" width="238" height="48" rx="24" fill="#06B6D4"/><text x="329" y="31" text-anchor="middle" font-family="Inter, Segoe UI, Arial, sans-serif" font-size="18" font-weight="800" fill="#FFFFFF">Chaotic Systems</text><rect x="468" width="278" height="48" rx="24" fill="#A78BFA"/><text x="607" y="31" text-anchor="middle" font-family="Inter, Segoe UI, Arial, sans-serif" font-size="18" font-weight="800" fill="#FFFFFF">Fractional Neurocomputing</text></g></g>
  <g transform="translate(1130,110)"><rect width="550" height="330" rx="30" fill="#020617" opacity="0.68" stroke="#475569"/><text x="36" y="62" font-family="Inter, Segoe UI, Arial, sans-serif" font-size="24" font-weight="800" fill="#F8FAFC">Scholar Snapshot</text><text x="36" y="104" font-family="Inter, Segoe UI, Arial, sans-serif" font-size="18" fill="#CBD5E1">Google Scholar profile · verified yuntech.edu.tw</text><g transform="translate(36,142)"><rect width="142" height="112" rx="20" fill="#111827" stroke="#334155"/><text x="71" y="46" text-anchor="middle" font-family="Inter, Segoe UI, Arial, sans-serif" font-size="38" font-weight="900" fill="#22D3EE">52</text><text x="71" y="80" text-anchor="middle" font-family="Inter, Segoe UI, Arial, sans-serif" font-size="16" fill="#CBD5E1">Citations</text><rect x="164" width="142" height="112" rx="20" fill="#111827" stroke="#334155"/><text x="235" y="46" text-anchor="middle" font-family="Inter, Segoe UI, Arial, sans-serif" font-size="38" font-weight="900" fill="#C084FC">3</text><text x="235" y="80" text-anchor="middle" font-family="Inter, Segoe UI, Arial, sans-serif" font-size="16" fill="#CBD5E1">h-index</text><rect x="328" width="142" height="112" rx="20" fill="#111827" stroke="#334155"/><text x="399" y="46" text-anchor="middle" font-family="Inter, Segoe UI, Arial, sans-serif" font-size="38" font-weight="900" fill="#A78BFA">2</text><text x="399" y="80" text-anchor="middle" font-family="Inter, Segoe UI, Arial, sans-serif" font-size="16" fill="#CBD5E1">i10-index</text></g><text x="36" y="294" font-family="Inter, Segoe UI, Arial, sans-serif" font-size="19" font-weight="700" fill="#F8FAFC">National Yunlin University of Science and Technology</text></g>
</svg>